<svg xmlns="http://www.w3.org/2000/svg" width="400" height="424" style="width:100%;height:100%;transform:translate3d(0,0,0);content-visibility:visible" viewBox="0 0 400 424"><defs><clipPath id="a"><path d="M0 0h400v424H0z"/></clipPath></defs><g clip-path="url(#a)"><g style="display:none"><path/><path fill="none"/></g><g style="display:none"><path/><path fill="none"/></g><g style="display:block"><path fill="#FFF" d="M202.98 143.606c6.781 15.078 20.463 45.57 20.628 46.495l51.1 10.19c3.612.72 4.325 5.573 1.074 7.303l-43.597 23.196 16.888 49.055c1.247 3.621-2.907 6.696-6.007 4.448l-42.915-31.125-.202.116-48.908 32.134c-3.208 2.108-7.22-1.175-5.788-4.737l20.588-51.22-43.921-22.763c-3.338-1.73-2.561-6.712 1.145-7.343l53.699-9.149c.204-.915 12.762-31.345 19.021-46.488 1.313-3.176 5.785-3.246 7.195-.112z"/><path fill="none" stroke="#121331" stroke-linecap="round" stroke-linejoin="round" stroke-width="8.5" d="M202.98 143.606c6.781 15.078 20.463 45.57 20.628 46.495l51.1 10.19c3.612.72 4.325 5.573 1.074 7.303l-43.597 23.196 16.888 49.055c1.247 3.621-2.907 6.696-6.007 4.448l-42.915-31.125-.202.116-48.908 32.134c-3.208 2.108-7.22-1.175-5.788-4.737l20.588-51.22-43.921-22.763c-3.338-1.73-2.561-6.712 1.145-7.343l53.699-9.149c.204-.915 12.762-31.345 19.021-46.488 1.313-3.176 5.785-3.246 7.195-.112z"/></g><g style="display:none"><path/><path fill="none"/></g><g style="display:none"><path/><path fill="none"/></g><g style="display:none"><path/><path fill="none"/></g><g style="display:none"><path/><path fill="none"/></g><g style="display:none"><path/><path fill="none"/></g><g style="display:none"><path/><path fill="none"/></g><g style="display:none"><path/><path fill="none"/></g><g style="display:none"><path/><path fill="none"/></g><g style="display:none"><path/><path fill="none"/></g><g style="display:none"><path/><path fill="none"/></g><g style="display:none"><path/><path fill="none"/></g><g style="display:none"><path/><path fill="none"/></g><g style="display:none"><path/><path fill="none"/></g></g></svg>